<?xml version="1.0" encoding="utf-8"?>
<!-- Generator: Adobe Illustrator 24.0.1, SVG Export Plug-In . SVG Version: 6.00 Build 0)  -->
<svg version="1.1" id="Layer_1" xmlns="http://www.w3.org/2000/svg" xmlns:xlink="http://www.w3.org/1999/xlink" x="0px" y="0px"
	 viewBox="0 0 1000 1000" style="enable-background:new 0 0 1000 1000;" xml:space="preserve">
<g>
	<path d="M290.01,674.52c3.35,2.81,6.23,6.03,8.63,9.66v128.93h-8.63v-75.31h-54.04v75.31h-8.63V684.18
		c2.4-3.63,5.27-6.85,8.63-9.66c7.81-6.51,16.81-9.76,27.02-9.76C273.19,664.76,282.2,668.01,290.01,674.52z M290.01,729.28v-42.33
		c-6.78-9.04-15.79-13.56-27.02-13.56c-11.3,0-20.31,4.52-27.02,13.56v42.33H290.01z"/>
	<path d="M388.02,674.52c3.35,2.81,6.23,6.03,8.63,9.66v128.93h-8.63V686.95c-6.78-9.04-15.79-13.56-27.02-13.56
		c-11.3,0-20.31,4.52-27.02,13.56v126.16h-8.63V684.18c2.4-3.63,5.27-6.85,8.63-9.66c7.81-6.51,16.81-9.76,27.02-9.76
		C371.2,664.76,380.21,668.01,388.02,674.52z"/>
	<path d="M457.78,805.61c11.16-0.07,20.1-4.55,26.81-13.46l8.53,2.67c-2.33,3.63-5.17,6.85-8.53,9.66
		c-7.74,6.44-16.68,9.66-26.81,9.66h-0.1c-10.07,0-19.01-3.22-26.81-9.66c-3.36-2.81-6.2-6.03-8.53-9.66V684.08
		c2.33-3.63,5.17-6.85,8.53-9.66c7.81-6.44,16.78-9.66,26.92-9.66c10.14,0,19.11,3.22,26.92,9.66c3.35,2.81,6.2,6.03,8.53,9.66
		l-8.53,2.67c-6.78-8.97-15.75-13.46-26.92-13.46c-11.23,0-20.21,4.49-26.92,13.46v105.41
		C437.57,801.06,446.54,805.54,457.78,805.61z"/>
	<path d="M571.81,674.52c3.36,2.74,6.2,5.92,8.53,9.55v110.75c-2.33,3.63-5.17,6.85-8.53,9.66c-7.81,6.44-16.78,9.66-26.92,9.66
		c-10.14,0-19.11-3.22-26.92-9.66c-3.36-2.81-6.2-6.03-8.53-9.66V684.08c2.33-3.63,5.17-6.81,8.53-9.55
		c7.81-6.51,16.78-9.76,26.92-9.76C555.03,664.76,564,668.01,571.81,674.52z M571.81,686.75c-6.71-8.97-15.68-13.46-26.92-13.46
		c-11.23,0-20.21,4.49-26.92,13.46v105.41c6.71,8.97,15.68,13.46,26.92,13.46c11.16,0,20.14-4.49,26.92-13.46V686.75z"/>
	<path d="M668.08,737.29c5.48,6.64,8.66,14.25,9.55,22.81h0.31v53.01h-8.73v-48.59c0-11.23-4.49-20.27-13.46-27.12h-41.4v75.72
		h-8.63V665.79h53.12c3.7,2.4,6.95,5.27,9.76,8.63c6.58,7.88,9.86,16.95,9.86,27.22c0,10.21-3.29,19.25-9.86,27.12
		c-1.3,1.64-2.74,3.15-4.31,4.52C665.65,734.59,666.91,735.92,668.08,737.29z M614.35,674.42v54.25h42.02
		c8.97-6.78,13.46-15.79,13.46-27.02c0-11.37-4.56-20.44-13.66-27.22H614.35z"/>
	<path d="M764.03,674.52c3.35,2.81,6.23,6.03,8.63,9.66v128.93h-8.63v-75.31h-54.04v75.31h-8.63V684.18
		c2.4-3.63,5.27-6.85,8.63-9.66c7.81-6.51,16.81-9.76,27.02-9.76C747.22,664.76,756.23,668.01,764.03,674.52z M764.03,729.28v-42.33
		c-6.78-9.04-15.79-13.56-27.02-13.56c-11.3,0-20.31,4.52-27.02,13.56v42.33H764.03z"/>
</g>
<g>
	<path d="M295.61,883.21c-2.19,0-4.26-0.46-6.21-1.38c-1.95-0.92-3.66-2.19-5.12-3.8c-1.46-1.61-2.62-3.48-3.48-5.6
		c-0.86-2.12-1.29-4.39-1.29-6.79c0-2.36,0.41-4.57,1.22-6.63c0.81-2.06,1.94-3.86,3.38-5.41c1.44-1.54,3.11-2.76,5.02-3.64
		c1.91-0.88,3.96-1.32,6.15-1.32c2.23,0,4.32,0.45,6.28,1.35c1.95,0.9,3.65,2.13,5.08,3.67c1.44,1.54,2.58,3.37,3.44,5.47
		c0.86,2.1,1.29,4.36,1.29,6.76v0.71H280.8c0.17,2.15,0.68,4.15,1.51,6.02c0.84,1.87,1.92,3.49,3.25,4.86
		c1.33,1.37,2.86,2.46,4.6,3.25c1.74,0.79,3.57,1.19,5.5,1.19c1.29,0,2.54-0.17,3.77-0.51c1.22-0.34,2.37-0.83,3.44-1.45
		c1.07-0.62,2.02-1.36,2.83-2.22c0.81-0.86,1.46-1.8,1.93-2.83l1.22,0.32c-0.47,1.16-1.15,2.22-2.03,3.19
		c-0.88,0.96-1.91,1.8-3.09,2.51c-1.18,0.71-2.47,1.27-3.86,1.67C298.49,883.01,297.06,883.21,295.61,883.21z M310.02,865.32
		c-0.13-2.23-0.6-4.29-1.42-6.18c-0.82-1.89-1.88-3.51-3.19-4.86c-1.31-1.35-2.82-2.41-4.54-3.19c-1.72-0.77-3.56-1.16-5.54-1.16
		c-1.97,0-3.82,0.39-5.54,1.16c-1.72,0.77-3.23,1.85-4.54,3.22c-1.31,1.37-2.35,3-3.12,4.89c-0.77,1.89-1.22,3.93-1.35,6.12H310.02z
		"/>
	<path d="M344.98,882.57h-1.29v-18.6c0-4.89-0.68-8.45-2.03-10.68c-1.35-2.23-3.53-3.35-6.53-3.35c-1.63,0-3.23,0.29-4.79,0.87
		c-1.57,0.58-3.02,1.38-4.35,2.41c-1.33,1.03-2.49,2.25-3.48,3.67c-0.99,1.42-1.72,2.94-2.19,4.57v21.11h-1.29v-33.41h1.29v8.63
		c0.69-1.33,1.57-2.56,2.64-3.7c1.07-1.14,2.25-2.1,3.54-2.9s2.66-1.42,4.12-1.87c1.46-0.45,2.94-0.68,4.44-0.68
		c3.43,0,5.94,1.23,7.53,3.7c1.59,2.47,2.38,6.34,2.38,11.62V882.57z"/>
	<path d="M369.05,883.21c-2.32,0-4.46-0.49-6.44-1.48c-1.97-0.99-3.68-2.29-5.12-3.93c-1.44-1.63-2.55-3.48-3.35-5.54
		c-0.79-2.06-1.19-4.16-1.19-6.31c0-2.23,0.38-4.39,1.13-6.47c0.75-2.08,1.81-3.93,3.19-5.54c1.37-1.61,3.01-2.9,4.92-3.86
		c1.91-0.96,4-1.45,6.28-1.45c1.5,0,2.91,0.22,4.22,0.64c1.31,0.43,2.53,1.02,3.67,1.77c1.14,0.75,2.18,1.63,3.12,2.64
		c0.94,1.01,1.82,2.09,2.64,3.25v-7.79h1.29v34.82c0,2.19-0.41,4.1-1.22,5.73c-0.82,1.63-1.91,2.98-3.28,4.06
		c-1.37,1.07-2.95,1.87-4.73,2.38c-1.78,0.52-3.62,0.77-5.5,0.77c-3.95,0-7.04-0.73-9.27-2.19c-2.23-1.46-3.97-3.39-5.21-5.79
		l1.22-0.39c1.37,2.53,3.25,4.34,5.63,5.44c2.38,1.09,4.92,1.64,7.63,1.64c1.84,0,3.58-0.25,5.21-0.74
		c1.63-0.49,3.06-1.23,4.28-2.22s2.19-2.2,2.9-3.64c0.71-1.44,1.06-3.12,1.06-5.05v-8.37c-0.73,1.12-1.58,2.14-2.54,3.06
		c-0.97,0.92-2.02,1.73-3.15,2.41c-1.14,0.69-2.33,1.21-3.57,1.58C371.6,883.03,370.33,883.21,369.05,883.21z M369.05,881.93
		c1.59,0,3.14-0.31,4.67-0.93c1.52-0.62,2.89-1.43,4.09-2.41c1.2-0.99,2.2-2.08,2.99-3.28c0.79-1.2,1.23-2.4,1.32-3.6v-12.04
		c-0.52-1.42-1.25-2.71-2.22-3.89c-0.97-1.18-2.05-2.2-3.25-3.06c-1.2-0.86-2.51-1.53-3.93-2.03s-2.83-0.74-4.25-0.74
		c-2.27,0-4.29,0.48-6.05,1.45c-1.76,0.96-3.24,2.21-4.44,3.73c-1.2,1.52-2.12,3.24-2.77,5.15c-0.64,1.91-0.97,3.81-0.97,5.7
		c0,2.1,0.39,4.11,1.16,6.02c0.77,1.91,1.82,3.61,3.15,5.09c1.33,1.48,2.9,2.66,4.7,3.54C365.06,881.49,366.99,881.93,369.05,881.93
		z"/>
	<path d="M407.86,883.21c-2.19,0-4.26-0.46-6.21-1.38c-1.95-0.92-3.66-2.19-5.12-3.8c-1.46-1.61-2.62-3.48-3.48-5.6
		c-0.86-2.12-1.29-4.39-1.29-6.79c0-2.36,0.41-4.57,1.22-6.63c0.81-2.06,1.94-3.86,3.38-5.41c1.44-1.54,3.11-2.76,5.02-3.64
		c1.91-0.88,3.96-1.32,6.15-1.32c2.23,0,4.32,0.45,6.28,1.35c1.95,0.9,3.65,2.13,5.08,3.67c1.44,1.54,2.58,3.37,3.44,5.47
		c0.86,2.1,1.29,4.36,1.29,6.76v0.71h-30.57c0.17,2.15,0.68,4.15,1.51,6.02c0.84,1.87,1.92,3.49,3.25,4.86
		c1.33,1.37,2.86,2.46,4.6,3.25c1.74,0.79,3.57,1.19,5.5,1.19c1.29,0,2.54-0.17,3.77-0.51c1.22-0.34,2.37-0.83,3.44-1.45
		c1.07-0.62,2.02-1.36,2.83-2.22c0.81-0.86,1.46-1.8,1.93-2.83l1.22,0.32c-0.47,1.16-1.15,2.22-2.03,3.19
		c-0.88,0.96-1.91,1.8-3.09,2.51c-1.18,0.71-2.47,1.27-3.86,1.67C410.75,883.01,409.32,883.21,407.86,883.21z M422.28,865.32
		c-0.13-2.23-0.6-4.29-1.42-6.18c-0.82-1.89-1.88-3.51-3.19-4.86c-1.31-1.35-2.82-2.41-4.54-3.19c-1.72-0.77-3.56-1.16-5.54-1.16
		c-1.97,0-3.82,0.39-5.54,1.16c-1.72,0.77-3.23,1.85-4.54,3.22c-1.31,1.37-2.35,3-3.12,4.89c-0.77,1.89-1.22,3.93-1.35,6.12H422.28z
		"/>
	<path d="M457.23,882.57h-1.29v-18.6c0-4.89-0.68-8.45-2.03-10.68c-1.35-2.23-3.53-3.35-6.53-3.35c-1.63,0-3.23,0.29-4.79,0.87
		c-1.57,0.58-3.02,1.38-4.35,2.41c-1.33,1.03-2.49,2.25-3.48,3.67c-0.99,1.42-1.72,2.94-2.19,4.57v21.11h-1.29v-33.41h1.29v8.63
		c0.69-1.33,1.57-2.56,2.64-3.7c1.07-1.14,2.25-2.1,3.54-2.9s2.66-1.42,4.12-1.87c1.46-0.45,2.94-0.68,4.44-0.68
		c3.43,0,5.94,1.23,7.53,3.7c1.59,2.47,2.38,6.34,2.38,11.62V882.57z"/>
	<path d="M493.47,882.57h-1.29v-18.6c0-9.35-3.09-14.03-9.27-14.03c-1.54,0-3.07,0.3-4.57,0.9c-1.5,0.6-2.89,1.42-4.15,2.45
		c-1.27,1.03-2.37,2.24-3.31,3.64c-0.94,1.39-1.63,2.91-2.06,4.54v21.11h-1.29v-46.99h1.29v22.21c0.69-1.37,1.53-2.63,2.54-3.77
		c1.01-1.14,2.12-2.1,3.35-2.9c1.22-0.79,2.53-1.41,3.93-1.83c1.39-0.43,2.8-0.64,4.22-0.64c3.48,0,6.11,1.29,7.92,3.86
		c1.8,2.58,2.7,6.39,2.7,11.46V882.57z"/>
	<path d="M511.62,883.21c-1.5,0-2.92-0.27-4.25-0.8c-1.33-0.54-2.48-1.26-3.44-2.19c-0.96-0.92-1.73-2-2.29-3.25
		c-0.56-1.24-0.84-2.58-0.84-3.99s0.33-2.7,1-3.86c0.67-1.16,1.61-2.16,2.83-2.99c1.22-0.84,2.68-1.49,4.38-1.96
		c1.7-0.47,3.55-0.71,5.57-0.71c1.93,0,3.88,0.16,5.86,0.48c1.97,0.32,3.75,0.78,5.34,1.38v-3.8c0-1.72-0.26-3.29-0.77-4.73
		c-0.52-1.44-1.26-2.66-2.22-3.67c-0.97-1.01-2.12-1.79-3.48-2.35c-1.35-0.56-2.84-0.84-4.47-0.84s-3.37,0.35-5.21,1.06
		c-1.85,0.71-3.71,1.73-5.6,3.06l-0.77-1.03c4.29-2.92,8.15-4.38,11.59-4.38c1.84,0,3.53,0.3,5.05,0.9c1.52,0.6,2.81,1.46,3.86,2.58
		s1.87,2.47,2.45,4.05c0.58,1.59,0.87,3.37,0.87,5.34V880c0,0.86,0.34,1.29,1.03,1.29v1.29c-0.47,0-0.77-0.04-0.9-0.13
		c-0.43-0.17-0.77-0.48-1.03-0.93c-0.26-0.45-0.39-0.95-0.39-1.51v-3.09c-1.54,2.02-3.56,3.57-6.05,4.67
		C517.24,882.67,514.54,883.21,511.62,883.21z M511.62,881.93c2.87,0,5.5-0.54,7.88-1.61c2.38-1.07,4.15-2.51,5.31-4.31
		c0.64-0.9,0.97-1.78,0.97-2.64v-6.63c-3.43-1.33-7.17-2-11.2-2c-1.89,0-3.59,0.19-5.12,0.58c-1.52,0.39-2.83,0.94-3.93,1.67
		c-1.09,0.73-1.94,1.6-2.54,2.61c-0.6,1.01-0.9,2.13-0.9,3.38c0,1.25,0.25,2.41,0.74,3.51c0.49,1.09,1.17,2.05,2.03,2.86
		c0.86,0.82,1.87,1.45,3.03,1.9C509.04,881.7,510.29,881.93,511.62,881.93z"/>
	<path d="M551.78,850.45c-3.18,0.13-5.91,1.16-8.21,3.09c-2.3,1.93-3.89,4.57-4.79,7.92v21.11h-1.29v-33.41h1.29v8.63
		c1.16-2.36,2.71-4.3,4.67-5.83c1.95-1.52,4.02-2.41,6.21-2.67c0.43-0.04,0.83-0.07,1.19-0.1s0.68-0.03,0.93-0.03V850.45z"/>
	<path d="M558.41,840.54v-4.96h1.29v4.96H558.41z M558.41,882.57v-33.41h1.29v33.41H558.41z"/>
	<path d="M578.3,883.21c-1.5,0-2.92-0.27-4.25-0.8c-1.33-0.54-2.48-1.26-3.44-2.19c-0.96-0.92-1.73-2-2.28-3.25
		c-0.56-1.24-0.84-2.58-0.84-3.99s0.33-2.7,1-3.86c0.67-1.16,1.61-2.16,2.83-2.99c1.22-0.84,2.68-1.49,4.38-1.96
		c1.7-0.47,3.55-0.71,5.57-0.71c1.93,0,3.88,0.16,5.86,0.48c1.97,0.32,3.75,0.78,5.34,1.38v-3.8c0-1.72-0.26-3.29-0.77-4.73
		c-0.52-1.44-1.26-2.66-2.22-3.67c-0.97-1.01-2.12-1.79-3.48-2.35c-1.35-0.56-2.84-0.84-4.47-0.84s-3.37,0.35-5.21,1.06
		c-1.85,0.71-3.71,1.73-5.6,3.06l-0.77-1.03c4.29-2.92,8.15-4.38,11.59-4.38c1.84,0,3.53,0.3,5.05,0.9c1.52,0.6,2.81,1.46,3.86,2.58
		s1.87,2.47,2.45,4.05c0.58,1.59,0.87,3.37,0.87,5.34V880c0,0.86,0.34,1.29,1.03,1.29v1.29c-0.47,0-0.77-0.04-0.9-0.13
		c-0.43-0.17-0.77-0.48-1.03-0.93c-0.26-0.45-0.39-0.95-0.39-1.51v-3.09c-1.54,2.02-3.56,3.57-6.05,4.67
		C583.92,882.67,581.22,883.21,578.3,883.21z M578.3,881.93c2.87,0,5.5-0.54,7.88-1.61c2.38-1.07,4.15-2.51,5.31-4.31
		c0.64-0.9,0.97-1.78,0.97-2.64v-6.63c-3.43-1.33-7.17-2-11.2-2c-1.89,0-3.59,0.19-5.12,0.58c-1.52,0.39-2.83,0.94-3.93,1.67
		c-1.09,0.73-1.94,1.6-2.54,2.61c-0.6,1.01-0.9,2.13-0.9,3.38c0,1.25,0.25,2.41,0.74,3.51c0.49,1.09,1.17,2.05,2.03,2.86
		c0.86,0.82,1.87,1.45,3.03,1.9C575.73,881.7,576.97,881.93,578.3,881.93z"/>
	<path d="M619.17,865.71c0-2.4,0.41-4.64,1.22-6.73c0.81-2.08,1.95-3.88,3.41-5.41c1.46-1.52,3.16-2.72,5.12-3.6
		c1.95-0.88,4.06-1.32,6.34-1.32c2.83,0,5.35,0.66,7.56,1.96c2.21,1.31,3.87,3.14,4.99,5.5l-1.29,0.45
		c-1.12-2.06-2.69-3.68-4.73-4.86c-2.04-1.18-4.28-1.77-6.73-1.77c-2.06,0-3.97,0.41-5.73,1.22c-1.76,0.82-3.3,1.93-4.63,3.35
		s-2.37,3.09-3.12,5.02c-0.75,1.93-1.13,3.99-1.13,6.18s0.39,4.27,1.16,6.24c0.77,1.97,1.83,3.7,3.19,5.18s2.91,2.65,4.67,3.51
		c1.76,0.86,3.65,1.29,5.66,1.29c1.29,0,2.58-0.19,3.89-0.58c1.31-0.39,2.51-0.9,3.6-1.54c1.09-0.64,2.03-1.39,2.8-2.25
		s1.29-1.74,1.54-2.64l1.29,0.39c-0.39,1.12-1,2.16-1.83,3.12c-0.84,0.96-1.83,1.8-2.99,2.51c-1.16,0.71-2.44,1.27-3.83,1.67
		c-1.39,0.41-2.82,0.61-4.28,0.61c-2.19,0-4.27-0.46-6.24-1.38s-3.69-2.18-5.15-3.77c-1.46-1.59-2.62-3.44-3.48-5.57
		S619.17,868.11,619.17,865.71z"/>
	<path d="M656.25,840.54v-4.96h1.29v4.96H656.25z M656.25,882.57v-33.41h1.29v33.41H656.25z"/>
	<path d="M679.03,882.57l-14.55-33.41h1.42l13.71,31.54l13.71-31.54h1.42l-14.55,33.41H679.03z"/>
	<path d="M701.69,840.54v-4.96h1.29v4.96H701.69z M701.69,882.57v-33.41h1.29v33.41H701.69z"/>
	<path d="M713.98,835.58h1.29v42.03c0,1.25,0.39,2.23,1.16,2.96s1.8,1.09,3.09,1.09c0.47,0,1.04-0.05,1.71-0.16
		c0.67-0.11,1.28-0.25,1.83-0.42l0.45,1.03c-0.6,0.21-1.34,0.4-2.22,0.55c-0.88,0.15-1.62,0.23-2.22,0.23
		c-1.5,0-2.73-0.48-3.67-1.45c-0.94-0.97-1.42-2.24-1.42-3.83V835.58z"/>
</g>
<g>
	<path d="M425.39,452.94c-16.51-17.09-25.96-38.45-28.41-60.42h205.98c-2.59,23.14-12.93,45.55-30.95,62.96l16.15,16.72
		c24.39-23.56,38.14-55.2,38.73-89.1c0.59-33.9-12.06-66-35.62-90.39c-48.62-50.34-129.14-51.74-179.49-3.11
		c-50.34,48.63-51.74,129.14-3.11,179.49L425.39,452.94z M427.93,306.32c41.13-39.72,106.9-38.58,146.62,2.54
		c16.51,17.09,25.95,38.45,28.41,60.42H396.98C399.57,346.14,409.91,323.73,427.93,306.32z"/>
	<rect x="488.38" y="290.31" width="23.24" height="66.16"/>
	<path d="M488.38,223.25v19.38h23.24v-19.38c15.53-4.94,26.82-19.49,26.82-36.64c0-21.2-17.24-38.44-38.44-38.44
		s-38.44,17.25-38.44,38.44C461.56,203.76,472.85,218.31,488.38,223.25z M500,171.41c8.38,0,15.2,6.82,15.2,15.2
		c0,8.38-6.82,15.2-15.2,15.2c-8.38,0-15.2-6.82-15.2-15.2C484.8,178.23,491.62,171.41,500,171.41z"/>
	<path d="M664.2,389.63v11.62c0,86.63-67.44,157.8-152.57,163.78V545.4v-14.9V406.53h-23.24V530.5v14.9v19.64
		c-85.14-5.98-152.58-77.15-152.58-163.78v-11.62h-65.56v23.24h42.67c5.79,94.11,81.35,169.66,175.46,175.45v15.18
		c0,6.42,5.2,11.62,11.62,11.62c6.42,0,11.62-5.2,11.62-11.62v-15.18c94.11-5.79,169.67-81.33,175.46-175.45h42.67v-23.24H664.2z"/>
</g>
</svg>
