<svg width="60" height="60" viewBox="0 0 60 60" fill="none" xmlns="http://www.w3.org/2000/svg">
<path d="M42 25.76V35.9375C42.0001 36.9752 41.6189 37.9735 40.9348 38.7278C40.2507 39.482 39.3154 39.935 38.3208 39.9938L38.1 40H21.9C20.9038 40.0001 19.9454 39.6031 19.2213 38.8904C18.4972 38.1778 18.0624 37.2035 18.006 36.1675L18 35.9375V25.76L29.5824 32.08C29.7113 32.1503 29.8545 32.187 30 32.187C30.1455 32.187 30.2887 32.1503 30.4176 32.08L42 25.76ZM21.9 20H38.1C39.0667 19.9999 39.999 20.3737 40.716 21.0491C41.4331 21.7244 41.8838 22.6531 41.9808 23.655L30 30.1925L18.0192 23.655C18.1122 22.6929 18.5317 21.7969 19.2021 21.1281C19.8725 20.4593 20.75 20.0615 21.6768 20.0063L21.9 20H38.1H21.9Z" fill="#F9A826"/>
<circle cx="30" cy="30" r="29.5" stroke="#F9A826"/>
</svg>
