<svg width="1037" height="467" viewBox="0 0 1037 467" fill="none" xmlns="http://www.w3.org/2000/svg">
<path d="M155.14 304.77C138.63 287.68 129.18 266.32 126.73 244.35H332.71C330.12 267.49 319.78 289.9 301.76 307.31L317.91 324.03C342.3 300.47 356.05 268.83 356.64 234.93C357.23 201.03 344.58 168.93 321.02 144.54C272.4 94.2 191.88 92.8 141.53 141.43C91.19 190.06 89.7901 270.57 138.42 320.92L155.14 304.77ZM157.68 158.15C198.81 118.43 264.58 119.57 304.3 160.69C320.81 177.78 330.25 199.14 332.71 221.11H126.73C129.32 197.97 139.66 175.56 157.68 158.15Z" fill="white"/>
<path d="M241.37 142.14H218.13V208.3H241.37V142.14Z" fill="white"/>
<path d="M218.13 75.08V94.46H241.37V75.08C256.9 70.14 268.19 55.59 268.19 38.44C268.19 17.24 250.95 0 229.75 0C208.55 0 191.31 17.25 191.31 38.44C191.31 55.59 202.6 70.14 218.13 75.08ZM229.75 23.24C238.13 23.24 244.95 30.06 244.95 38.44C244.95 46.82 238.13 53.64 229.75 53.64C221.37 53.64 214.55 46.82 214.55 38.44C214.55 30.06 221.37 23.24 229.75 23.24Z" fill="white"/>
<path d="M393.95 241.46V253.08C393.95 339.71 326.51 410.88 241.38 416.86V397.23V382.33V258.36H218.14V382.33V397.23V416.87C133 410.89 65.56 339.72 65.56 253.09V241.47H0V264.71H42.67C48.46 358.82 124.02 434.37 218.13 440.16V455.34C218.13 461.76 223.33 466.96 229.75 466.96C236.17 466.96 241.37 461.76 241.37 455.34V440.16C335.48 434.37 411.04 358.83 416.83 264.71H459.5V241.47H393.95V241.46Z" fill="white"/>
<path d="M596.1 371.63C593.91 371.63 591.84 371.17 589.89 370.25C587.94 369.33 586.23 368.06 584.77 366.45C583.31 364.84 582.15 362.97 581.29 360.85C580.43 358.73 580 356.46 580 354.06C580 351.7 580.41 349.49 581.22 347.43C582.03 345.37 583.16 343.57 584.6 342.02C586.04 340.48 587.71 339.26 589.62 338.38C591.53 337.5 593.58 337.06 595.77 337.06C598 337.06 600.09 337.51 602.05 338.41C604 339.31 605.7 340.54 607.13 342.08C608.57 343.62 609.71 345.45 610.57 347.55C611.43 349.65 611.86 351.91 611.86 354.31V355.02H581.29C581.46 357.17 581.97 359.17 582.8 361.04C583.64 362.91 584.72 364.53 586.05 365.9C587.38 367.27 588.91 368.36 590.65 369.15C592.39 369.94 594.22 370.34 596.15 370.34C597.44 370.34 598.69 370.17 599.92 369.83C601.14 369.49 602.29 369 603.36 368.38C604.43 367.76 605.38 367.02 606.19 366.16C607 365.3 607.65 364.36 608.12 363.33L609.34 363.65C608.87 364.81 608.19 365.87 607.31 366.84C606.43 367.8 605.4 368.64 604.22 369.35C603.04 370.06 601.75 370.62 600.36 371.02C598.98 371.43 597.55 371.63 596.1 371.63ZM610.51 353.74C610.38 351.51 609.91 349.45 609.09 347.56C608.27 345.67 607.21 344.05 605.9 342.7C604.59 341.35 603.08 340.29 601.36 339.51C599.64 338.74 597.8 338.35 595.82 338.35C593.85 338.35 592 338.74 590.28 339.51C588.56 340.28 587.05 341.36 585.74 342.73C584.43 344.1 583.39 345.73 582.62 347.62C581.85 349.51 581.4 351.55 581.27 353.74H610.51Z" fill="white"/>
<path d="M645.47 370.99H644.18V352.39C644.18 347.5 643.5 343.94 642.15 341.71C640.8 339.48 638.62 338.36 635.62 338.36C633.99 338.36 632.39 338.65 630.83 339.23C629.26 339.81 627.81 340.61 626.48 341.64C625.15 342.67 623.99 343.89 623 345.31C622.01 346.73 621.28 348.25 620.81 349.88V370.99H619.52V337.58H620.81V346.21C621.5 344.88 622.38 343.65 623.45 342.51C624.52 341.37 625.7 340.41 626.99 339.61C628.28 338.81 629.65 338.19 631.11 337.74C632.57 337.29 634.05 337.06 635.55 337.06C638.98 337.06 641.49 338.29 643.08 340.76C644.67 343.23 645.46 347.1 645.46 352.38V370.99H645.47Z" fill="white"/>
<path d="M669.54 371.63C667.22 371.63 665.08 371.14 663.1 370.15C661.13 369.16 659.42 367.86 657.98 366.22C656.54 364.59 655.43 362.74 654.63 360.68C653.84 358.62 653.44 356.52 653.44 354.37C653.44 352.14 653.82 349.98 654.57 347.9C655.32 345.82 656.38 343.97 657.76 342.36C659.13 340.75 660.77 339.46 662.68 338.5C664.59 337.54 666.68 337.05 668.96 337.05C670.46 337.05 671.87 337.27 673.18 337.69C674.49 338.12 675.71 338.71 676.85 339.46C677.99 340.21 679.03 341.09 679.97 342.1C680.91 343.11 681.79 344.19 682.61 345.35V337.56H683.9V372.38C683.9 374.57 683.49 376.48 682.68 378.11C681.86 379.74 680.77 381.09 679.4 382.17C678.03 383.24 676.45 384.04 674.67 384.55C672.89 385.07 671.05 385.32 669.17 385.32C665.22 385.32 662.13 384.59 659.9 383.13C657.67 381.67 655.93 379.74 654.69 377.34L655.91 376.95C657.28 379.48 659.16 381.29 661.54 382.39C663.92 383.48 666.46 384.03 669.17 384.03C671.01 384.03 672.75 383.78 674.38 383.29C676.01 382.8 677.44 382.06 678.66 381.07C679.88 380.08 680.85 378.87 681.56 377.43C682.27 375.99 682.62 374.31 682.62 372.38V364.01C681.89 365.13 681.04 366.15 680.08 367.07C679.11 367.99 678.06 368.8 676.93 369.48C675.79 370.17 674.6 370.69 673.36 371.06C672.09 371.45 670.82 371.63 669.54 371.63ZM669.54 370.35C671.13 370.35 672.68 370.04 674.21 369.42C675.73 368.8 677.1 367.99 678.3 367.01C679.5 366.02 680.5 364.93 681.29 363.73C682.08 362.53 682.52 361.33 682.61 360.13V348.09C682.09 346.67 681.36 345.38 680.39 344.2C679.42 343.02 678.34 342 677.14 341.14C675.94 340.28 674.63 339.61 673.21 339.11C671.79 338.61 670.38 338.37 668.96 338.37C666.69 338.37 664.67 338.85 662.91 339.82C661.15 340.78 659.67 342.03 658.47 343.55C657.27 345.07 656.35 346.79 655.7 348.7C655.06 350.61 654.73 352.51 654.73 354.4C654.73 356.5 655.12 358.51 655.89 360.42C656.66 362.33 657.71 364.03 659.04 365.51C660.37 366.99 661.94 368.17 663.74 369.05C665.55 369.91 667.48 370.35 669.54 370.35Z" fill="white"/>
<path d="M708.35 371.63C706.16 371.63 704.09 371.17 702.14 370.25C700.19 369.33 698.48 368.06 697.02 366.45C695.56 364.84 694.4 362.97 693.54 360.85C692.68 358.73 692.25 356.46 692.25 354.06C692.25 351.7 692.66 349.49 693.47 347.43C694.28 345.37 695.41 343.57 696.85 342.02C698.29 340.48 699.96 339.26 701.87 338.38C703.78 337.5 705.83 337.06 708.02 337.06C710.25 337.06 712.34 337.51 714.3 338.41C716.25 339.31 717.95 340.54 719.38 342.08C720.82 343.62 721.96 345.45 722.82 347.55C723.68 349.65 724.11 351.91 724.11 354.31V355.02H693.54C693.71 357.17 694.22 359.17 695.05 361.04C695.89 362.91 696.97 364.53 698.3 365.9C699.63 367.27 701.16 368.36 702.9 369.15C704.64 369.94 706.47 370.34 708.4 370.34C709.69 370.34 710.94 370.17 712.17 369.83C713.39 369.49 714.54 369 715.61 368.38C716.68 367.76 717.63 367.02 718.44 366.16C719.25 365.3 719.9 364.36 720.37 363.33L721.59 363.65C721.12 364.81 720.44 365.87 719.56 366.84C718.68 367.8 717.65 368.64 716.47 369.35C715.29 370.06 714 370.62 712.61 371.02C711.24 371.43 709.81 371.63 708.35 371.63ZM722.77 353.74C722.64 351.51 722.17 349.45 721.35 347.56C720.53 345.67 719.47 344.05 718.16 342.7C716.85 341.35 715.34 340.29 713.62 339.51C711.9 338.74 710.06 338.35 708.08 338.35C706.11 338.35 704.26 338.74 702.54 339.51C700.82 340.28 699.31 341.36 698 342.73C696.69 344.1 695.65 345.73 694.88 347.62C694.11 349.51 693.66 351.55 693.53 353.74H722.77Z" fill="white"/>
<path d="M757.72 370.99H756.43V352.39C756.43 347.5 755.75 343.94 754.4 341.71C753.05 339.48 750.87 338.36 747.87 338.36C746.24 338.36 744.64 338.65 743.08 339.23C741.51 339.81 740.06 340.61 738.73 341.64C737.4 342.67 736.24 343.89 735.25 345.31C734.26 346.73 733.53 348.25 733.06 349.88V370.99H731.77V337.58H733.06V346.21C733.75 344.88 734.63 343.65 735.7 342.51C736.77 341.37 737.95 340.41 739.24 339.61C740.53 338.81 741.9 338.19 743.36 337.74C744.82 337.29 746.3 337.06 747.8 337.06C751.23 337.06 753.74 338.29 755.33 340.76C756.92 343.23 757.71 347.1 757.71 352.38V370.99H757.72Z" fill="white"/>
<path d="M793.96 370.99H792.67V352.39C792.67 343.04 789.58 338.36 783.4 338.36C781.86 338.36 780.33 338.66 778.83 339.26C777.33 339.86 775.94 340.68 774.68 341.71C773.41 342.74 772.31 343.95 771.37 345.35C770.43 346.74 769.74 348.26 769.31 349.89V371H768.02V324.01H769.31V346.22C770 344.85 770.84 343.59 771.85 342.45C772.86 341.31 773.97 340.35 775.2 339.55C776.42 338.76 777.73 338.14 779.13 337.72C780.52 337.29 781.93 337.08 783.35 337.08C786.83 337.08 789.46 338.37 791.27 340.94C793.07 343.52 793.97 347.33 793.97 352.4V370.99H793.96Z" fill="white"/>
<path d="M812.11 371.63C810.61 371.63 809.19 371.36 807.86 370.83C806.53 370.29 805.38 369.57 804.42 368.64C803.46 367.72 802.69 366.64 802.13 365.39C801.57 364.15 801.29 362.81 801.29 361.4C801.29 359.99 801.62 358.7 802.29 357.54C802.96 356.38 803.9 355.38 805.12 354.55C806.34 353.71 807.8 353.06 809.5 352.59C811.2 352.12 813.05 351.88 815.07 351.88C817 351.88 818.95 352.04 820.93 352.36C822.9 352.68 824.68 353.14 826.27 353.74V349.94C826.27 348.22 826.01 346.65 825.5 345.21C824.98 343.77 824.24 342.55 823.28 341.54C822.31 340.53 821.16 339.75 819.8 339.19C818.45 338.63 816.96 338.35 815.33 338.35C813.7 338.35 811.96 338.7 810.12 339.41C808.27 340.12 806.41 341.14 804.52 342.47L803.75 341.44C808.04 338.52 811.9 337.06 815.34 337.06C817.18 337.06 818.87 337.36 820.39 337.96C821.91 338.56 823.2 339.42 824.25 340.54C825.3 341.66 826.12 343.01 826.7 344.59C827.28 346.18 827.57 347.96 827.57 349.93V368.42C827.57 369.28 827.91 369.71 828.6 369.71V371C828.13 371 827.83 370.96 827.7 370.87C827.27 370.7 826.93 370.39 826.67 369.94C826.41 369.49 826.28 368.99 826.28 368.43V365.34C824.74 367.36 822.72 368.91 820.23 370.01C817.73 371.09 815.03 371.63 812.11 371.63ZM812.11 370.35C814.98 370.35 817.61 369.81 819.99 368.74C822.37 367.67 824.14 366.23 825.3 364.43C825.94 363.53 826.27 362.65 826.27 361.79V355.16C822.84 353.83 819.1 353.16 815.07 353.16C813.18 353.16 811.48 353.35 809.95 353.74C808.43 354.13 807.12 354.68 806.02 355.41C804.93 356.14 804.08 357.01 803.48 358.02C802.88 359.03 802.58 360.15 802.58 361.4C802.58 362.65 802.83 363.81 803.32 364.91C803.81 366 804.49 366.96 805.35 367.77C806.21 368.59 807.22 369.22 808.38 369.67C809.53 370.12 810.78 370.35 812.11 370.35Z" fill="white"/>
<path d="M852.27 338.87C849.09 339 846.36 340.03 844.06 341.96C841.76 343.89 840.17 346.53 839.27 349.88V370.99H837.98V337.58H839.27V346.21C840.43 343.85 841.98 341.91 843.94 340.38C845.89 338.86 847.96 337.97 850.15 337.71C850.58 337.67 850.98 337.64 851.34 337.61C851.7 337.58 852.02 337.58 852.27 337.58V338.87Z" fill="white"/>
<path d="M858.9 328.96V324H860.19V328.96H858.9ZM858.9 370.99V337.58H860.19V370.99H858.9Z" fill="white"/>
<path d="M878.79 371.63C877.29 371.63 875.87 371.36 874.54 370.83C873.21 370.29 872.06 369.57 871.1 368.64C870.14 367.72 869.37 366.64 868.82 365.39C868.26 364.15 867.98 362.81 867.98 361.4C867.98 359.99 868.31 358.7 868.98 357.54C869.65 356.38 870.59 355.38 871.81 354.55C873.03 353.71 874.49 353.06 876.19 352.59C877.89 352.12 879.74 351.88 881.76 351.88C883.69 351.88 885.64 352.04 887.62 352.36C889.59 352.68 891.37 353.14 892.96 353.74V349.94C892.96 348.22 892.7 346.65 892.19 345.21C891.67 343.77 890.93 342.55 889.97 341.54C889 340.53 887.85 339.75 886.49 339.19C885.14 338.63 883.65 338.35 882.02 338.35C880.39 338.35 878.65 338.7 876.81 339.41C874.96 340.12 873.1 341.14 871.21 342.47L870.44 341.44C874.73 338.52 878.59 337.06 882.03 337.06C883.87 337.06 885.56 337.36 887.08 337.96C888.6 338.56 889.89 339.42 890.94 340.54C891.99 341.66 892.81 343.01 893.39 344.59C893.97 346.18 894.26 347.96 894.26 349.93V368.42C894.26 369.28 894.6 369.71 895.29 369.71V371C894.82 371 894.52 370.96 894.39 370.87C893.96 370.7 893.62 370.39 893.36 369.94C893.1 369.49 892.97 368.99 892.97 368.43V365.34C891.43 367.36 889.41 368.91 886.92 370.01C884.41 371.09 881.71 371.63 878.79 371.63ZM878.79 370.35C881.66 370.35 884.29 369.81 886.67 368.74C889.05 367.67 890.82 366.23 891.98 364.43C892.62 363.53 892.95 362.65 892.95 361.79V355.16C889.52 353.83 885.78 353.16 881.75 353.16C879.86 353.16 878.16 353.35 876.63 353.74C875.11 354.13 873.8 354.68 872.7 355.41C871.61 356.14 870.76 357.01 870.16 358.02C869.56 359.03 869.26 360.15 869.26 361.4C869.26 362.65 869.51 363.81 870 364.91C870.49 366 871.17 366.96 872.03 367.77C872.89 368.59 873.9 369.22 875.06 369.67C876.22 370.12 877.46 370.35 878.79 370.35Z" fill="white"/>
<path d="M919.66 354.13C919.66 351.73 920.07 349.49 920.88 347.4C921.69 345.32 922.83 343.52 924.29 341.99C925.75 340.47 927.45 339.27 929.41 338.39C931.36 337.51 933.47 337.07 935.75 337.07C938.58 337.07 941.1 337.73 943.31 339.03C945.52 340.34 947.18 342.17 948.3 344.53L947.01 344.98C945.89 342.92 944.32 341.3 942.28 340.12C940.24 338.94 938 338.35 935.55 338.35C933.49 338.35 931.58 338.76 929.82 339.57C928.06 340.39 926.52 341.5 925.19 342.92C923.86 344.34 922.82 346.01 922.07 347.94C921.32 349.87 920.94 351.93 920.94 354.12C920.94 356.31 921.33 358.39 922.1 360.36C922.87 362.33 923.93 364.06 925.29 365.54C926.65 367.02 928.2 368.19 929.96 369.05C931.72 369.91 933.61 370.34 935.62 370.34C936.91 370.34 938.2 370.15 939.51 369.76C940.82 369.37 942.02 368.86 943.11 368.22C944.2 367.58 945.14 366.83 945.91 365.97C946.68 365.11 947.2 364.23 947.45 363.33L948.74 363.72C948.35 364.84 947.74 365.88 946.91 366.84C946.07 367.8 945.08 368.64 943.92 369.35C942.76 370.06 941.48 370.62 940.09 371.02C938.7 371.43 937.27 371.63 935.81 371.63C933.62 371.63 931.54 371.17 929.57 370.25C927.6 369.33 925.88 368.07 924.42 366.48C922.96 364.89 921.8 363.04 920.94 360.91C920.08 358.78 919.66 356.53 919.66 354.13Z" fill="white"/>
<path d="M956.74 328.96V324H958.03V328.96H956.74ZM956.74 370.99V337.58H958.03V370.99H956.74Z" fill="white"/>
<path d="M979.52 370.99L964.97 337.58H966.39L980.1 369.12L993.81 337.58H995.23L980.68 370.99H979.52Z" fill="white"/>
<path d="M1002.18 328.96V324H1003.47V328.96H1002.18ZM1002.18 370.99V337.58H1003.47V370.99H1002.18Z" fill="white"/>
<path d="M1014.47 324H1015.76V366.03C1015.76 367.28 1016.15 368.26 1016.92 368.99C1017.69 369.72 1018.72 370.08 1020.01 370.08C1020.48 370.08 1021.05 370.03 1021.72 369.92C1022.39 369.81 1023 369.67 1023.55 369.5L1024 370.53C1023.4 370.74 1022.66 370.93 1021.78 371.08C1020.9 371.23 1020.16 371.31 1019.56 371.31C1018.06 371.31 1016.83 370.83 1015.89 369.86C1014.95 368.89 1014.47 367.62 1014.47 366.03V324V324Z" fill="white"/>
<path d="M621.862 183.388C624.741 185.803 627.217 188.571 629.279 191.691V302.501H621.862V237.775H575.417V302.501H568V191.691C570.063 188.571 572.529 185.803 575.417 183.388C582.13 177.793 589.865 175 598.64 175C607.406 175 615.15 177.793 621.862 183.388ZM621.862 230.452V194.071C616.035 186.302 608.291 182.417 598.64 182.417C588.928 182.417 581.184 186.302 575.417 194.071V230.452H621.862Z" fill="white"/>
<path d="M706.098 183.388C708.977 185.803 711.452 188.571 713.515 191.691V302.501H706.098V194.071C700.27 186.302 692.527 182.417 682.875 182.417C673.163 182.417 665.419 186.302 659.652 194.071V302.501H652.235V191.691C654.298 188.571 656.765 185.803 659.652 183.388C666.365 177.793 674.1 175 682.875 175C691.642 175 699.385 177.793 706.098 183.388Z" fill="white"/>
<path d="M766.054 296.055C775.646 295.995 783.329 292.144 789.096 284.486L796.427 286.781C794.425 289.901 791.984 292.668 789.096 295.084C782.444 300.618 774.76 303.386 766.054 303.386H765.968C757.313 303.386 749.63 300.618 742.926 295.084C740.038 292.668 737.597 289.901 735.595 286.781V191.605C737.597 188.485 740.038 185.717 742.926 183.302C749.638 177.767 757.348 175 766.063 175C774.777 175 782.487 177.767 789.199 183.302C792.078 185.717 794.528 188.485 796.53 191.605L789.199 193.899C783.372 186.19 775.663 182.331 766.063 182.331C756.411 182.331 748.693 186.19 742.926 193.899V284.495C748.684 292.144 756.394 295.995 766.054 296.055Z" fill="white"/>
<path d="M864.058 183.388C866.946 185.743 869.387 188.476 871.389 191.596V286.781C869.387 289.901 866.946 292.669 864.058 295.084C857.346 300.619 849.636 303.386 840.921 303.386C832.207 303.386 824.497 300.619 817.785 295.084C814.897 292.669 812.456 289.901 810.454 286.781V191.605C812.456 188.485 814.897 185.752 817.785 183.397C824.497 177.802 832.207 175.009 840.921 175.009C849.636 175 857.346 177.793 864.058 183.388ZM864.058 193.9C858.291 186.19 850.582 182.331 840.921 182.331C831.27 182.331 823.552 186.19 817.785 193.9V284.495C823.552 292.204 831.261 296.063 840.921 296.063C850.513 296.063 858.231 292.204 864.058 284.495V193.9Z" fill="white"/>
<path d="M946.798 237.337C951.508 243.043 954.241 249.584 955.006 256.941H955.272V302.501H947.769V260.74C947.769 251.088 943.91 243.318 936.201 237.431H900.619V302.509H893.202V175.885H938.857C942.037 177.948 944.83 180.415 947.245 183.302C952.9 190.075 955.719 197.87 955.719 206.697C955.719 215.472 952.892 223.241 947.245 230.005C946.128 231.415 944.89 232.713 943.541 233.89C944.71 235.016 945.792 236.159 946.798 237.337ZM900.619 183.302V229.928H936.734C944.443 224.101 948.302 216.357 948.302 206.705C948.302 196.933 944.383 189.138 936.562 183.311H900.619V183.302Z" fill="white"/>
<path d="M1029.26 183.388C1032.14 185.803 1034.62 188.571 1036.68 191.691V302.501H1029.26V237.775H982.818V302.501H975.401V191.691C977.464 188.571 979.93 185.803 982.818 183.388C989.53 177.793 997.266 175 1006.04 175C1014.82 175 1022.56 177.793 1029.26 183.388ZM1029.26 230.452V194.071C1023.44 186.302 1015.69 182.417 1006.04 182.417C996.329 182.417 988.585 186.302 982.818 194.071V230.452H1029.26Z" fill="white"/>
</svg>
