<svg width="60" height="60" viewBox="0 0 60 60" fill="none" xmlns="http://www.w3.org/2000/svg">
<path d="M40.2051 23.5499C36.615 17.9998 29.2852 16.3498 23.6009 19.7998C18.0661 23.2499 16.2711 30.7499 19.8612 36.3L20.1604 36.75L18.9637 41.25L23.4513 40.05L23.9001 40.35C25.8447 41.4 27.9389 42 30.0332 42C32.277 42 34.5208 41.4 36.4654 40.2C42.0002 36.6 43.6456 29.2499 40.2051 23.5499V23.5499ZM37.0638 35.0999C36.4654 36 35.7175 36.6 34.6704 36.75C34.072 36.75 33.3241 37.05 30.3323 35.85C27.7893 34.6499 25.6951 32.6999 24.1992 30.4499C23.3017 29.3999 22.8529 28.0499 22.7034 26.6999C22.7034 25.4999 23.1521 24.4499 23.9001 23.6999C24.1992 23.3999 24.4984 23.2499 24.7976 23.2499H25.5455C25.8447 23.2499 26.1439 23.2499 26.2935 23.8499C26.5926 24.5999 27.3406 26.3999 27.3406 26.5499C27.4902 26.6999 27.4902 26.9999 27.3406 27.1499C27.4902 27.4499 27.3406 27.7499 27.191 27.8999C27.0414 28.0499 26.8918 28.3499 26.7422 28.4999C26.4431 28.6499 26.2935 28.9499 26.4431 29.2499C27.0414 30.1499 27.7893 31.0499 28.5373 31.7999C29.4348 32.5499 30.3323 33.1499 31.3795 33.5999C31.6786 33.7499 31.9778 33.7499 32.1274 33.4499C32.277 33.1499 33.0249 32.3999 33.3241 32.0999C33.6233 31.7999 33.7729 31.7999 34.072 31.9499L36.4654 33.1499C36.7646 33.2999 37.0638 33.4499 37.2134 33.5999C37.363 34.0499 37.363 34.6499 37.0638 35.0999V35.0999Z" fill="#F9A826"/>
<circle cx="30" cy="30" r="29.5" stroke="#F9A826"/>
</svg>
